<svg width="240" height="130" viewBox="0 0 240 130" xmlns="http://www.w3.org/2000/svg">
  <defs>
    <linearGradient id="aBody" x1="0" y1="0" x2="1" y2="1">
      <stop offset="0" stop-color="#f8c8a0"/>
      <stop offset="0.48" stop-color="#e59f7d"/>
      <stop offset="1" stop-color="#c9785f"/>
    </linearGradient>
    <radialGradient id="aShine" cx="0.35" cy="0.22" r="0.55">
      <stop offset="0" stop-color="#fff" stop-opacity="0.5"/>
      <stop offset="1" stop-color="#fff" stop-opacity="0"/>
    </radialGradient>
  </defs>
  <ellipse cx="130" cy="66" rx="71" ry="33" fill="url(#aBody)"/>
  <path d="M60 66L18 39V93L60 66Z" fill="#c67c63"/>
  <path d="M103 42C117 28 140 26 160 39" fill="#efb18f" opacity="0.74"/>
  <path d="M110 92C126 101 148 101 163 92" fill="#cc846b" opacity="0.74"/>
  <ellipse cx="131" cy="66" rx="69" ry="32" fill="url(#aShine)"/>
  <path d="M118 49C123 53 123 79 118 83" stroke="#ac6d56" stroke-width="2.3" stroke-linecap="round"/>
  <path d="M116 66C125 60 138 60 148 66" stroke="#ffe8d9" stroke-width="2.2" stroke-linecap="round" opacity="0.75"/>
  <circle cx="174" cy="58" r="5.1" fill="#2f2622"/>
  <circle cx="175.6" cy="56.6" r="1.55" fill="#fff2e8" opacity="0.85"/>
</svg>
