<svg width="340" height="180" viewBox="0 0 340 180" xmlns="http://www.w3.org/2000/svg">
  <defs>
    <linearGradient id="rayBody" x1="0" y1="0" x2="1" y2="1">
      <stop offset="0" stop-color="#a5b9c7"/>
      <stop offset="0.5" stop-color="#6f889a"/>
      <stop offset="1" stop-color="#415c71"/>
    </linearGradient>
    <radialGradient id="rayShine" cx="0.42" cy="0.2" r="0.62">
      <stop offset="0" stop-color="#fff" stop-opacity="0.42"/>
      <stop offset="1" stop-color="#fff" stop-opacity="0"/>
    </radialGradient>
  </defs>

  <path d="M56 96C88 44 136 26 194 30C239 33 277 49 295 78C281 98 281 109 295 126C276 148 238 161 193 160C136 158 88 140 56 96Z" fill="url(#rayBody)"/>
  <path d="M111 93C142 71 176 70 208 93" stroke="#d8e4ec" stroke-width="3" stroke-linecap="round" opacity="0.58"/>
  <path d="M110 102C143 119 176 119 208 102" stroke="#5f7a8e" stroke-width="2.2" stroke-linecap="round" opacity="0.55"/>
  <ellipse cx="176" cy="96" rx="117" ry="60" fill="url(#rayShine)"/>
  <path d="M278 96L336 89L336 103L278 96Z" fill="#4a6378"/>
  <path d="M278 96L322 84L322 108Z" fill="#566f82" opacity="0.85"/>
  <circle cx="248" cy="80" r="4.9" fill="#1e2b32"/>
  <circle cx="249.4" cy="78.8" r="1.5" fill="#edf6fc" opacity="0.84"/>
</svg>
